<svg version="1.1" id="Layer_1" xmlns="http://www.w3.org/2000/svg" xmlns:xlink="http://www.w3.org/1999/xlink" x="0px" y="0px"
	 viewBox="0 0 500 500" style="enable-background:new 0 0 500 500;" xml:space="preserve">
<style type="text/css">
	.st0{fill:#3492FF;}
</style>
<g id="XMLID_1_">
	<polygon id="XMLID_2_" points="67.5,83.7 101.5,83.7 101.5,309.5 236.1,309.5 236.1,337.4 67.5,337.4 	"/>
	<path id="XMLID_3_" d="M427.9,229.1c-1.5-23.2-12.4-47.9-32.5-61.9c-18.6-15.5-43.3-20.1-66.5-17c-24.7,1.5-49.5,15.5-61.9,37.1
		c-15.5,21.7-18.6,49.5-15.5,74.2c3.1,23.2,12.4,46.4,30.9,61.9c20.1,15.5,46.4,20.1,69.6,17c24.7-1.5,46.4-13.9,60.3-32.5
		C427.9,284.8,431,257,427.9,229.1z M389.2,284.8c-7.7,15.5-21.7,26.3-38.7,29.4c-15.5,3.1-32.5-1.5-43.3-10.8
		c-12.4-9.3-20.1-23.2-23.2-37.1c-3.1-20.1-1.5-40.2,6.2-58.8c7.7-17,24.7-29.4,43.3-30.9c15.5-1.5,32.5,3.1,44.9,13.9
		c10.8,12.4,17,27.8,18.6,43.3C398.5,250.8,396.9,269.3,389.2,284.8z"/>
	<rect id="XMLID_6_" x="67.5" y="377.6" class="st0" width="365" height="38.7"/>
</g>
</svg>