<?xml version="1.0" encoding="UTF-8" standalone="no"?>
<svg
   xmlns:dc="http://purl.org/dc/elements/1.1/"
   xmlns:cc="http://creativecommons.org/ns#"
   xmlns:rdf="http://www.w3.org/1999/02/22-rdf-syntax-ns#"
   xmlns:svg="http://www.w3.org/2000/svg"
   xmlns="http://www.w3.org/2000/svg"
   xmlns:sodipodi="http://sodipodi.sourceforge.net/DTD/sodipodi-0.dtd"
   xmlns:inkscape="http://www.inkscape.org/namespaces/inkscape"
   width="551.0592"
   height="500.63556"
   viewBox="0 0 551.0592 500.63556"
   version="1.1"
   id="svg22"
   sodipodi:docname="realm-orig.svg"
   inkscape:version="0.92.2 5c3e80d, 2017-08-06">
  <metadata
     id="metadata26">
    <rdf:RDF>
      <cc:Work
         rdf:about="">
        <dc:format>image/svg+xml</dc:format>
        <dc:type
           rdf:resource="http://purl.org/dc/dcmitype/StillImage" />
        <dc:title>realmLogoWordmark Copy</dc:title>
      </cc:Work>
    </rdf:RDF>
  </metadata>
  <sodipodi:namedview
     pagecolor="#ffffff"
     bordercolor="#666666"
     borderopacity="1"
     objecttolerance="10"
     gridtolerance="10"
     guidetolerance="10"
     inkscape:pageopacity="0"
     inkscape:pageshadow="2"
     inkscape:window-width="1280"
     inkscape:window-height="755"
     id="namedview24"
     showgrid="false"
     fit-margin-top="0"
     fit-margin-left="0"
     fit-margin-right="0"
     fit-margin-bottom="0"
     inkscape:zoom="0.27764706"
     inkscape:cx="269.59322"
     inkscape:cy="122.45766"
     inkscape:window-x="0"
     inkscape:window-y="1"
     inkscape:window-maximized="1"
     inkscape:current-layer="Group" />
  <!-- Generator: Sketch 3.7.2 (28276) - http://www.bohemiancoding.com/sketch -->
  <title
     id="title2">realmLogoWordmark Copy</title>
  <desc
     id="desc4">Created with Sketch.</desc>
  <defs
     id="defs6" />
  <g
     id="logo-ratio-&amp;-clearance"
     style="display:inline;fill:none;fill-rule:evenodd;stroke:none;stroke-width:1"
     transform="translate(-216.10169,-46.822033)">
    <g
       id="realmLogoWordmark-Copy"
       style="display:inline">
      <g
         id="Group"
         transform="translate(282,86)">
        <g
           id="Page-1-Copy-15">
          <g
             id="Logo"
             transform="translate(1.090418)">
            <path
               d="M 303.49706,20.545715 C 275.89466,7.3718461 245.01415,0 212.41892,0 155.5569,0 103.9132,22.43431 65.787655,58.968891 25.253905,97.811182 375.24037,54.786822 303.49706,20.545715 Z"
               id="Melon"
               inkscape:connector-curvature="0"
               style="fill:#fcc397" />
            <path
               d="m 378.36755,80.134794 c 0.24266,0.30451 -17.32514,23.881376 -70.12468,30.574716 -106.57228,13.51005 -289.539103,14.93846 -289.263332,14.33 11.318543,-24.9732 27.292525,-47.369541 46.808676,-66.071155 22.994707,7.20903 48.023496,9.005472 71.697886,4.624713 39.09073,-7.180901 73.86947,-29.86117 112.53608,-39.103913 17.16288,-4.140148 35.86138,-5.349477 53.47203,-3.944801 29.26299,13.965875 54.84171,34.452857 74.87334,59.59044 z"
               id="Peach"
               inkscape:connector-curvature="0"
               style="fill:#fc9f95" />
            <path
               d="m 422.24681,179.88223 c 0.13462,0.85926 -240.32034,23.55468 -357.476151,16.93961 C 26.600109,194.66658 4.0734989,171.49346 4.3318438,170.22823 7.5512946,154.46112 12.503448,139.32825 18.979758,125.03903 52.826512,106.43653 92.647073,95.700857 131.25984,96.124527 c 48.42161,0.497686 95.92428,16.708033 144.3459,15.499373 35.96005,-0.91834 72.20585,-12.4429 102.76143,-31.489585 22.51843,28.258095 38.02706,62.393115 43.87964,99.747915 z"
               id="Sexy-Salmon"
               inkscape:connector-curvature="0"
               style="fill:#f77c88" />
            <path
               d="m 424.83785,213.29407 c 0,1.18183 -0.0287,3.53868 -0.0287,3.53868 0,0 -66.78655,16.91465 -152.79917,15.9055 C 151.53634,231.3248 0.0047267,211.81224 0.00773228,211.45492 0.12677071,197.30278 1.6184226,183.47936 4.3555406,170.11234 c 28.8636674,17.88288 63.8680114,26.64118 97.5593994,22.95478 26.79094,-2.91502 52.23879,-12.86875 77.05046,-23.46235 24.81166,-10.59361 49.48194,-21.96929 75.70737,-28.08372 38.52523,-8.95835 79.73662,-5.83004 116.56533,8.74506 17.91652,7.09461 35.69377,17.29429 51.0052,29.59374 1.70782,10.89284 2.59455,22.05955 2.59455,33.43422 z"
               id="Flamingo"
               inkscape:connector-curvature="0"
               style="fill:#f25192" />
            <path
               d="M 183.93552,282.54885 C 120.20492,294.36643 10.835436,280.73601 10.559822,279.89323 3.7069125,258.93836 0,236.5509 0,213.29407 0,212.6799 0.00258518,212.06633 0.00774521,211.45338 9.682554,203.75014 20.983384,196.88136 32.015374,191.54409 c 27.285759,-13.29533 58.247319,-18.84097 88.431306,-15.85486 29.83054,2.98612 58.31801,14.07741 85.88652,26.02188 23.22639,10.06318 46.30226,20.93381 70.41123,28.44522 2.36165,0.7358 -22.65621,39.38408 -92.80891,52.39252 z"
               id="Mulberry"
               inkscape:connector-curvature="0"
               style="fill:#d34ca3" />
            <path
               d="m 417.17446,270.27124 c -4.45005,7.5464 -46.77374,32.96847 -104.14578,37.32232 -75.96333,5.7647 -165.70209,-17.29186 -135.93397,-29.02533 46.86647,-18.48549 87.51235,-51.68827 135.93397,-65.55238 36.17287,-10.4051 76.27046,-8.75994 111.78059,3.81295 -0.29905,18.48086 -2.9389,36.39032 -7.63481,53.44244 z"
               id="Grape-Jelly"
               inkscape:connector-curvature="0"
               style="fill:#9a50a5" />
            <path
               d="M 396.6173,319.59778 C 359.93798,383.54081 93.913789,399.57625 55.051487,356.56327 35.269241,334.66818 19.95641,308.62696 10.559345,279.89192 43.228325,261.14304 81.4708,253.18006 118.22882,258.22802 c 47.57335,6.54102 90.19851,33.20278 137.13567,43.58309 37.88904,8.38956 78.0401,5.75894 114.51536,-7.46529 16.48878,-6.02422 32.83825,-14.09725 47.29558,-24.07825 -4.80305,17.44239 -11.75734,33.98779 -20.55813,49.33021 z"
               id="Indigo"
               inkscape:connector-curvature="0"
               style="fill:#59569e" />
            <path
               d="m 396.92282,319.06343 c -36.6022,64.23744 -105.51865,107.52471 -184.5039,107.52471 -62.40507,0 -118.524836,-27.0214 -157.387905,-70.04758 6.449219,2.47572 13.662302,4.61579 20.273431,6.48595 36.970084,10.23811 76.767704,9.95372 113.525724,-0.92428 23.53926,-6.9676 45.66476,-18.0589 68.7799,-26.44846 44.10861,-15.9711 92.65732,-21.59554 139.31275,-16.59034 z"
               id="East-Bay"
               inkscape:connector-curvature="0"
               style="fill:#39477f" />
          </g>
        </g>
        <rect
           id="rect38"
           width="637.5"
           height="511.44064"
           x="-65.898308"
           y="-39.177967"
           ry="7.2033896" />
      </g>
    </g>
    <rect
       id="rect28"
       width="875.21185"
       height="464.61865"
       x="93.644066"
       y="39.618645" />
    <rect
       id="rect30"
       width="147.66949"
       height="115.25423"
       x="651.9068"
       y="515.04236" />
    <rect
       id="rect32"
       width="752.75421"
       height="515.04236"
       x="133.26271"
       y="61.228813"
       style="display:inline" />
    <rect
       id="rect34"
       width="309.15079"
       height="83.482178"
       x="396.18643"
       y="265.88223" />
    <rect
       id="rect36"
       width="677.11859"
       height="489.83051"
       x="208.8983"
       y="86.440681" />
  </g>
</svg>